<svg id="Layer_1" data-name="Layer 1" xmlns="http://www.w3.org/2000/svg" viewBox="0 0 469.29 469.304">
  <defs>
    <style>
      .cls-1 {
        fill: #666;
      }
    </style>
  </defs>
  <title>dc-off</title>
  <g>
    <path class="cls-1" d="M879.289,341.787c28.976,28.6,48.5,62.736,59.674,101.779a220.954,220.954,0,0,1,8.727,60.051c.219,55.3-16.156,105.216-50.621,148.722-32.377,40.869-73.988,67.989-124.33,81.559a226.092,226.092,0,0,1-46.726,7.266,231.759,231.759,0,0,1-121.875-26.3c-21.378-11.152-40.841-25.051-57.366-42.8Q581.47,637.3,616.24,602.6a7.312,7.312,0,0,1,3.237-2.251c5.845.435,11.177,3.052,16.922,3.98a64.177,64.177,0,0,1,8.788,1.66c8.464,2.64,13.493-1.191,17.59-8.019,1.511-2.517.981-3.4-1.446-4.3a115.148,115.148,0,0,1-17.514-8.363c-1.846-1.065-4.019-1.8-4.387-4.364.675-3.054,2.654-4.613,5.681-4.978,6.419,1.159,12.242,4.241,18.582,5.719,44.856,10.455,88.569,8.987,130.452-12.229,3.73-1.89,7.046-4.454,10.737-6.381,1.5-.782,3.381-2.685,4.819-.75,1.106,1.487-.789,3-1.885,4.164a76.511,76.511,0,0,1-8.371,7.862,128.553,128.553,0,0,1-31.781,18.659c-4.831,1.928-4.479,2.306-2,6.82,3.928,7.138,9.636,7.189,16.618,6.038,24.124-3.979,45.621-13.177,63.63-30.073,4.1-3.844,5.572-7.619,5.059-13.519-1.925-22.137-5.2-44-10.946-65.458-5.009-18.7-11.217-36.952-20.093-54.274-3.622-7.069-8.014-12.945-15.067-16.743-1.872-1.008-3.869-2-5.138-3.876-.79-2.395.937-3.736,2.3-5.105q36.459-36.568,73.027-73.027C876.192,342.669,877.277,341.179,879.289,341.787Z" transform="translate(-478.402 -272.231)"/>
    <path class="cls-1" d="M619.014,601.02c-3.674,3.826-7.287,7.712-11.033,11.467Q580,640.534,551.95,668.509c-1.488,1.484-2.677,3.5-5.177,3.557-14.837-13.876-26.644-30.121-36.875-47.549a222.893,222.893,0,0,1-29.6-87.249c-7.668-64.757,7.776-123.628,48.2-175.07,37.557-47.8,86.763-77.324,146.828-86.787,67.265-10.6,128.369,5.353,182.516,46.975a165.423,165.423,0,0,1,21.444,19.4,38.5,38.5,0,0,0-3.069,2.506q-37.071,37.024-74.1,74.1a30.892,30.892,0,0,0-2.169,2.7,2.186,2.186,0,0,1-1.369.532c-5.834-1.563-10.79-5.113-16.4-7.239a139.342,139.342,0,0,0-23.524-6.616,14.182,14.182,0,0,0-3.468-.367c-1.551.091-3.237.369-3.537,2.135-.364,2.144,1.684,2.14,3,2.561,11.107,3.548,22.279,6.927,32.162,13.413a21.022,21.022,0,0,1,4.079,2.855,1.847,1.847,0,0,1,.428,1.4,10.215,10.215,0,0,1-4.6,3.841,4.271,4.271,0,0,1-1.557.068c-13.406-5.074-26.926-9.731-41.2-11.8-39.437-5.716-77.291-1.084-113.089,17.163-2.066,1.054-4.067,2.32-6.444,2.613a2.166,2.166,0,0,1-2.238-.777c-.475-.777-.006-1.6.48-2.293a13.987,13.987,0,0,1,2.9-2.727,125.114,125.114,0,0,1,44.879-23.353,23.082,23.082,0,0,0,3.348-1c.784-.353,1.452-.857,1.37-1.849a2.13,2.13,0,0,0-1.536-1.784,7.211,7.211,0,0,0-3.939-.11c-19.829,3.041-37.563,11.125-53.949,22.435-3.416,2.358-5.233,5.961-7.108,9.5-14.66,27.683-22.979,57.393-28.264,88.089-2.2,12.8-3.506,25.7-4.61,38.636-.262,3.078,1.1,5.038,3.028,6.987a105.061,105.061,0,0,0,33.527,23.073,30.579,30.579,0,0,1,5.408,2.565A3.05,3.05,0,0,1,619.014,601.02Z" transform="translate(-478.402 -272.231)"/>
    <path class="cls-1" d="M639.885,581.155l-.492-.016-.491.026c-4.8-.576-7.562-4.5-11.216-6.931-4.03-2.684-7.151-6.425-10.45-9.924-.824-.873-2.225-2.106-.855-3.36,1.2-1.1,2.475.1,3.578.781,5.512,3.394,10.981,6.85,16.755,9.808,2.782,1.424,5.913,2.256,8.22,4.547a3.745,3.745,0,0,0,.124.862C642.446,577.259,641.153,579.191,639.885,581.155Z" transform="translate(-478.402 -272.231)"/>
    <path class="cls-1" d="M801.909,440.076l-14.93-6.994c.865-1.689,2.027-2.99,4.084-3.119,4.46,2.377,8.178,5.734,11.94,9.034C803.232,439.958,802.983,440.436,801.909,440.076Z" transform="translate(-478.402 -272.231)"/>
    <path class="cls-1" d="M776.944,520.753a26.6,26.6,0,0,1-10.273,20.127c-8.982,7.028-22.047,5.04-28.911-4.933-6.583-9.563-6.924-19.912-1.561-30.157,3.937-7.52,10.633-11.77,19.022-11.469,9.26.333,15.673,5.841,19.381,14.232A27.6,27.6,0,0,1,776.944,520.753Z" transform="translate(-478.402 -272.231)"/>
    <path class="cls-1" d="M674.962,545.1c-10.46.323-17.923-4.479-22.192-13.8-4.594-10.032-3.535-19.866,3.219-28.608,9.079-11.751,25.382-10.943,33.757,1.367a27.343,27.343,0,0,1,4.421,10.988,27.659,27.659,0,0,1,.041,8.9q-.046,1.01-.094,2.02L693,527.984A73.04,73.04,0,0,1,677.009,544.1Z" transform="translate(-478.402 -272.231)"/>
    <path class="cls-1" d="M677.009,544.1A132.2,132.2,0,0,1,693,527.984C690.514,536.178,685.865,542.228,677.009,544.1Z" transform="translate(-478.402 -272.231)"/>
    <path class="cls-1" d="M801.909,440.076,803,439a4.922,4.922,0,0,1,2.627,2.563C803.915,441.986,802.943,440.939,801.909,440.076Z" transform="translate(-478.402 -272.231)"/>
  </g>
</svg>
