<svg id="Layer_1" data-name="Layer 1" xmlns="http://www.w3.org/2000/svg" viewBox="0 0 482.853 351.065">
  <defs>
    <style>
      .cls-1 {
        fill: #8b9dfe;
      }

      .cls-2 {
        fill: #fff;
      }
    </style>
  </defs>
  <title>dc-on</title>
  <g>
    <path class="cls-1" d="M590.435,449.07l-4.274.711a2.211,2.211,0,0,1-2.63.629,42.386,42.386,0,0,0-6.575.941,2.078,2.078,0,0,1-2.3.375c-1.139-.23-2.183.431-3.3.352-.53.279-1.159-.073-1.68.262l-4.567.4c-.531.276-1.158-.073-1.679.261l-4.568.4c-.531.275-1.158-.072-1.68.26l-2.6.072c-.867.308-1.806-.119-2.667.256l-1.588.047a1.656,1.656,0,0,1-1.02.382c-.883-.1-1.755-.494-2.659-.1l-1.58.047a1.944,1.944,0,0,1-1.381.415,9.614,9.614,0,0,0-4.262-.129l-6.85.064a1.938,1.938,0,0,1-1.478.387,34.723,34.723,0,0,0-9.53-.007,1.857,1.857,0,0,1-1.484-.38l-6.851-.064a9.521,9.521,0,0,0-4.283.142,2.238,2.238,0,0,1-1.687-.439l-1.253-.036a4.8,4.8,0,0,0-2.656.1,1.6,1.6,0,0,1-1.022-.382l-1.589-.047c-.861-.375-1.8.053-2.667-.256l-2.594-.072c-.523-.333-1.15.015-1.681-.26l-4.568-.4c-.521-.334-1.148.015-1.678-.261l-4.568-.4c-.521-.335-1.149.017-1.679-.262l-3.3-.391a1.833,1.833,0,0,1-2.306-.336l-6.574-.98a2.424,2.424,0,0,1-2.63-.26c-1.347-.667-2.864-.637-4.274-1.041a4.194,4.194,0,0,1-3.945-.63l-6.905-1.647c-1.338.555-2.47-.074-3.615-.628-2.035-.887-4.25-1.121-6.355-1.75q-2.085-.624-4.166-1.253a13.986,13.986,0,0,1-6.576-1.935c-3.442-.939-6.806-2.116-10.149-3.355a4.992,4.992,0,0,1-3-.915l-1.3-.712a6.624,6.624,0,0,1-3.919-1.416l-2.012-.878a4.319,4.319,0,0,1-2.633-.965l-2.929-1.395a3.679,3.679,0,0,1-2.326-.905l-5.58-2.675a10.046,10.046,0,0,1-3.625-1.572l-3.849-2.074a4.551,4.551,0,0,1-2.728-1.538l-1.549-.762a4.587,4.587,0,0,1-2.724-1.536,20.382,20.382,0,0,1-4.231-2.375,4.429,4.429,0,0,1-2.671-1.6q-1.194-.667-2.387-1.336a5.326,5.326,0,0,1-2.545-1.6l-1.071-.7a5.308,5.308,0,0,1-2.545-1.6l-4.554-3.092c-1.413-.271-2.311-1.328-3.337-2.189l-.646-.391a1.043,1.043,0,0,1-.639-.246c-1.49-1.185-3.138-2.159-4.286-3.252,1.233,1.728,3.389,3.063,4.545,5.281a39.533,39.533,0,0,0,6.831,6.843,4.989,4.989,0,0,1,2.722,2.643,3.7,3.7,0,0,0,1.324,1.264,4.83,4.83,0,0,1,2.631,2.328,1.034,1.034,0,0,0,.672.621,2.321,2.321,0,0,1,1.949,1.687,20.759,20.759,0,0,0,3.59,2.939,11.776,11.776,0,0,1,4.321,3.511c.524.361.827,1.031,1.554,1.107a52.66,52.66,0,0,1,8.6,6.3,37.385,37.385,0,0,0,5.289,3.529,4.06,4.06,0,0,1,2.619,1.68l1.637.96a10.062,10.062,0,0,1,4.295,2.592,34.613,34.613,0,0,0,5.272,2.978A4.949,4.949,0,0,1,414.225,450a85.135,85.135,0,0,0,8.864,4.373,2.7,2.7,0,0,1,2.27,1.065,110.59,110.59,0,0,0,14.805,6.146,3.659,3.659,0,0,1,2.662.926l.957.387c.655.174,1.59-.143,1.708.973q-8.676,11.549-17.347,23.1a1.364,1.364,0,0,0-.13.463,4.89,4.89,0,0,1-2.921.151l-2.913-.076c-.735-.426-1.4.16-2.113.141a2.034,2.034,0,0,1-1.569-.461l-.133-.031-.135.024c-.564-.345-1.122-.012-1.683.019a1.265,1.265,0,0,1-.678-.306l-1.315,0a2.456,2.456,0,0,1-2.63-.323l-10.191-1.679c-.851.574-1.582.188-2.3-.289-.573-.01-1.028-.546-1.643-.372-.758.583-1.367.154-1.972-.292-.656-.607-1.618-.159-2.3-.669a2.289,2.289,0,0,1-2.618-.374c-.246-.416-.622-.343-1-.264-.584.38-.943-.02-1.314-.379-1.1-.165-2.12-.75-3.273-.67a2.786,2.786,0,0,1-2.3-.659c-.892-.625-2.031-.48-2.971-.955-.776.548-1.383.174-1.96-.36l-6.215-2.036a2.491,2.491,0,0,1-2.33-.6,14.772,14.772,0,0,0-3.945-1.309,1.359,1.359,0,0,1-1.571-.678,4.76,4.76,0,0,0-2.045-.637,1.354,1.354,0,0,1-1.569-.68l-12.921-5.492a2.31,2.31,0,0,1-2.292-1.055l-7.542-3.623a3.411,3.411,0,0,1-2.307-1.314,16.578,16.578,0,0,0-3.614-1.969,26.817,26.817,0,0,1-7.2-4.27,77.507,77.507,0,0,0-6.624-4.564,9.636,9.636,0,0,1-4.6-3.283.944.944,0,0,0-.275-.035,4.622,4.622,0,0,1-2.343-1.986c-.694-.363-1.076-1.185-1.931-1.311a12.509,12.509,0,0,1-4.313-3.624l-.656-.652c-.521.056-.789-.256-.983-.675l-.643-.621a4.6,4.6,0,0,1-2.316-2.011l-1.632-1.609a4.16,4.16,0,0,1-2.3-2.009,60.229,60.229,0,0,0-4.895-4.9,4.455,4.455,0,0,1-2.025-2.312l-1.273-1.3a4.576,4.576,0,0,1-2.015-2.315l-.406-.642c-.089-.557-.348-1.076-.383-1.648a2.174,2.174,0,0,1,.444-1.62l.029-.921c.421-.718-.149-1.38-.125-2.076a1.841,1.841,0,0,1,.409-1.277l.043-1.253c.36-.752-.047-1.587.256-2.345l.071-2.263c.434-.732-.163-1.4-.138-2.106a2.041,2.041,0,0,1,.459-1.567.366.366,0,0,0,.007-.274c.327-.523,0-1.144.249-1.677l.079-1.94c.328-.523,0-1.143.249-1.676l.08-1.941c.328-.522,0-1.143.249-1.676l.078-1.943c.334-.52-.009-1.144.256-1.675.461-4.738.812-9.491,1.411-14.213.752-5.933,1.7-11.841,2.579-17.758.768-5.172,1.489-10.352,2.358-15.506.823-4.882,1.776-9.743,2.736-14.6,2.363-11.951,5.033-23.835,8.128-35.619,1.548-5.894,3.165-11.77,4.916-17.611,2.037-6.8,4.092-13.583,6.469-20.268,2.666-7.5,5.266-15.014,8.219-22.408,3.077-7.7,6.3-15.347,9.822-22.847a255.509,255.509,0,0,1,16.212-30c1.29-2,3.518-3.042,5.411-4.368a226.907,226.907,0,0,1,24.808-15.112,76.722,76.722,0,0,1,9.032-4.392,30.4,30.4,0,0,0,3.18-1.588c.493.1.865-.2,1.275-.375l1.682-.955a1.568,1.568,0,0,0,1.948-.689l4.958-2.26c1.161.187,2.239.135,2.932-1.022l.673-.386c.82-.454,2.125.474,2.615-.918l2.336-.964c.9.266,1.749.341,2.266-.681l2.327-.965a1.858,1.858,0,0,0,2.6-.7l2.291-.75c.874.573,1.35-.244,1.969-.564l2.667-.957c.34.139.681.289.951-.122.144-.3.416-.283.683-.284a5.074,5.074,0,0,0,2.718-.146c2.7-.835,5.589-1.032,8.115-2.441l6.268-1.36a3.924,3.924,0,0,0,3.248-.6c3.076-.512,6.2-.692,9.244-1.43a3.875,3.875,0,0,1,1.572-.068,1.318,1.318,0,0,0,1.387-.261c.733-.32,1.084.067,1.3.7,1.475,2.957,2.935,5.921,4.434,8.865.407.8.507,1.26-.636,1.37a23.091,23.091,0,0,0-2.825.615c-1.6-.776-2.738.23-3.928,1.029a7.215,7.215,0,0,1-2.307.673,5.692,5.692,0,0,1-3.717,1.176c-.886-.832-1.594-.558-2.2.356l-.326.07c-1-.529-1.447.325-2.037.823a4.308,4.308,0,0,1-3.206.89c-1.378.67-2.976.724-4.306,1.53a2.072,2.072,0,0,1-1.487.686c-.906-.141-1.893-.612-2.466.608l.055.115c-.688.876-1.782.591-2.659.929h-.157l-.157.007c-1.41.232-3.095-.175-3.82,1.648a1.356,1.356,0,0,1-1.109.388,18.818,18.818,0,0,1-3.3,1.248c-.791.065-1.623.053-1.9,1.046a2.564,2.564,0,0,1-1.666.741c-.892-.2-1.619-.048-1.96.926a10.34,10.34,0,0,1-4.336,1.98l-2.3,1.309a4.247,4.247,0,0,1-2.25,1.078,1.172,1.172,0,0,0-1.578.82,2.465,2.465,0,0,1-1.705,1.073c-.922-.2-1.727-.171-1.947,1a3.668,3.668,0,0,1-2.361,1.348,6.848,6.848,0,0,0-4.7,2.793.759.759,0,0,1-.6.623,9.462,9.462,0,0,0-2.625,1.643,6.888,6.888,0,0,1-3.321,2.26,15.8,15.8,0,0,0-3.231,2.147,3.176,3.176,0,0,1-2.039,1.538,11.137,11.137,0,0,0-2.894,2.06,3.192,3.192,0,0,1-2.017,1.564c-.332.2-.753.271-.949.663a2.638,2.638,0,0,1-2.006,1.633c-.478.262-1.031.425-1.3.971-.15.691-.7.876-1.286,1.029a8.263,8.263,0,0,0-1.99,1.615,2.772,2.772,0,0,1-1.985,1.656l-.332.295c-.175.489-.378.948-1.018.928a2.127,2.127,0,0,0-1.279,1.054,2.651,2.651,0,0,1-1.956,1.677,22.2,22.2,0,0,0-2.973,2.6,1.851,1.851,0,0,1-.749.865.394.394,0,0,0-.08-.016c.053.094.109.089.179-.021a2.065,2.065,0,0,1,1.07-.426l18.678-9.3c1.033-.654,1.97-1.508,3.285-1.57l2.945-1.351a2.923,2.923,0,0,1,2.014-.953l2.26-1.02a2.891,2.891,0,0,1,2.02-.948l.614-.376a13.326,13.326,0,0,1,4.663-1.917l14.733-5.991a3.718,3.718,0,0,1,2.651-.934l13.786-4.662a1.87,1.87,0,0,1,1.973-.616l3.616-1.024c1.127-1.04,2.6-.929,3.963-1.206l13.172-3.242a1.8,1.8,0,0,1,2.259-.449l3.986-.868a1.54,1.54,0,0,1,1.934-.425c.567-.035,1.166.153,1.677-.249a4.29,4.29,0,0,1,3.613-.639l8.846-1.416a1.834,1.834,0,0,1,2-.23l6.563-.811c.531-.283,1.161.068,1.685-.263l.6-.025a1.767,1.767,0,0,1,1.241-.42c.6-.08,1.151.515,1.772.116l.6-.026a1.644,1.644,0,0,1,1.245-.394c.586.082,1.156.463,1.765.09l.936-.043a1.313,1.313,0,0,1,.7-.3,3.127,3.127,0,0,0,1.978.014l1.6-.055a1.29,1.29,0,0,1,.755-.293,5.928,5.928,0,0,0,2.923.025l1.91-.05a1.915,1.915,0,0,1,1.331-.407,5.317,5.317,0,0,0,2.994.124l2.908-.066a1.785,1.785,0,0,1,1.47-.332,45.436,45.436,0,0,0,9.107.071h5.8a45.771,45.771,0,0,0,9.1-.07,1.755,1.755,0,0,1,1.473.331l2.909.066a5.322,5.322,0,0,0,2.99-.125,1.881,1.881,0,0,1,1.335.408l1.91.05a5.924,5.924,0,0,0,2.922-.026,1.264,1.264,0,0,1,.756.294l1.6.055a3.111,3.111,0,0,0,1.977-.015,1.291,1.291,0,0,1,.7.3l.936.042c.606.373,1.177-.006,1.762-.088a1.62,1.62,0,0,1,1.248.393l.6.026c.617.4,1.172-.195,1.77-.115a1.742,1.742,0,0,1,1.243.419l.6.025c.524.332,1.154-.02,1.685.263l6.591.979a1.337,1.337,0,0,1,1.938.149c4.214.728,8.427,1.471,12.644,2.181a239.507,239.507,0,0,1,25.961,6.031,333.1,333.1,0,0,1,55.023,21.532c6.727,3.293,13.43,6.636,20.144,9.956.123.085.267.142.383.03.132-.129,0-.247-.071-.357-10.332-9.14-20.888-17.991-32.538-25.448a197.076,197.076,0,0,0-39.44-19.237,259.133,259.133,0,0,0-26.33-8.023c-1.052-.258-2.118-.461-3.174-.7-1.011-.229-1.5-.55-.8-1.738.932-1.584,1.605-3.319,2.39-4.989a9.528,9.528,0,0,1,2.172-4.315,2.863,2.863,0,0,1,1.5-.42,1.716,1.716,0,0,1,1.244.411l.6.026c.526.324,1.151-.011,1.685.254l1.635.162c.814-.252,1.619-.441,2.293.319l8.255,1.216a8.388,8.388,0,0,1,5.589,1.264c1.988.376,3.886,1.154,5.918,1.339a4.624,4.624,0,0,1,3.616.962l5.59,1.65a2.079,2.079,0,0,1,2.3.666,1.184,1.184,0,0,0,.986.322,3.686,3.686,0,0,1,3.616,1.307l1.619.463a1.1,1.1,0,0,1,1.34.53l2.631.98a1.9,1.9,0,0,1,2.277.768,9.31,9.31,0,0,0,2.606,1.021,6.157,6.157,0,0,1,3.953,1.627,2.954,2.954,0,0,0,1.656.668,2.539,2.539,0,0,1,2.275,1.007l1.345.627a2.57,2.57,0,0,1,2.271,1.018l1.345.627a5.625,5.625,0,0,1,3.64,1.848l5.262,2.627a3.013,3.013,0,0,1,2.628,1.334l1.3.728a2.813,2.813,0,0,1,2.314,1.241l5.261,2.966a2.762,2.762,0,0,1,2.3,1.323l.989.641a2.6,2.6,0,0,1,2.282,1.391l1.991,1.24a5.085,5.085,0,0,1,3.265,2.058,11.524,11.524,0,0,0,2.6,1.676,3.266,3.266,0,0,1,2.321,1.633,5.073,5.073,0,0,0,1.954,1.336,3.571,3.571,0,0,1,2.3,1.64l2.289,2.3a3.257,3.257,0,0,1,1.354,2.249l.3.366a7.964,7.964,0,0,1,2.317,3.929,8.982,8.982,0,0,0,1.31,2.3,3.23,3.23,0,0,1,1.308,2.322.72.72,0,0,0,.336.643,3.707,3.707,0,0,1,1.305,2.321,32.926,32.926,0,0,0,2.648,5.228,11.838,11.838,0,0,1,2.6,5.232l2.076,4.559a2.729,2.729,0,0,1,1.2,2.338l.952,2a9.129,9.129,0,0,1,2.035,4.627,9.313,9.313,0,0,0,1.257,2.921,2.679,2.679,0,0,1,1.007,2.3l7.256,18.395a1.914,1.914,0,0,1,.761,2.28l.884,2.322a1.917,1.917,0,0,1,.76,2.28l.942,2.3a2.046,2.046,0,0,1,.7,2.3l3.945,11.823a1.322,1.322,0,0,1,.623,1.656,9.984,9.984,0,0,0,.888,2.99,2.59,2.59,0,0,1,.792,2.916l.327.985a5.13,5.13,0,0,1,1.272,3.958l2.345,8.863a1.3,1.3,0,0,1,.605,1.658l.381,1.959a1.885,1.885,0,0,1,.659,2.3l2.958,11.847a1.591,1.591,0,0,1,.523,2q.231,1.139.463,2.278a2,2,0,0,1,.629,2.3c-.152.7.324,1.292.358,1.961a2.213,2.213,0,0,1,.625,2.313c-.186.811.3,1.517.36,2.289.993.813.911,1.866.658,2.956l.986,4.947a1.563,1.563,0,0,1,.5,2l.81,4.9a1.562,1.562,0,0,1,.5,2q1.063,6.233,2.126,12.465a6,6,0,0,1,.846,4.627c.192.649-.109,1.373.3,1.988.79.661.574,1.473.344,2.288l.477,3.918c.953.736.756,1.69.507,2.655l.15,1.948c.953.74.764,1.691.493,2.658l.494,4.9c.952.74.762,1.691.493,2.658.251.961-.155,2.019.432,2.931a1.8,1.8,0,0,1,.062,2.3l.166.368a1.908,1.908,0,0,1,.163,2.591l.163.368a1.9,1.9,0,0,1,.165,2.591q.332,2.475.661,4.951c.264.53-.078,1.154.255,1.674l.026.607a1.8,1.8,0,0,1,.418,1.242c.107.6-.524,1.149-.116,1.77l.025.6a1.791,1.791,0,0,1,.42,1.242c.106.6-.524,1.15-.117,1.771l.026.6a1.781,1.781,0,0,1,.419,1.241c.107.6-.523,1.151-.116,1.772a.371.371,0,0,0,.006.274,2.066,2.066,0,0,1,.461,1.564c.024.708-.575,1.373-.139,2.109l.07,2.263c.3.758-.1,1.593.257,2.345l.042,1.253a1.87,1.87,0,0,1,.41,1.275c.026.7-.548,1.357-.125,2.079.009.306.019.613.028.92a2.227,2.227,0,0,1,.447,1.643,5.11,5.11,0,0,1-.478,1.639l-.314.3c-.463.935-.76,2.015-1.987,2.285l-1.3,1.33c-.465.933-.752,2.022-1.992,2.276l-4.922,4.934c-.488.982-1.036,1.9-2.292,2l-1.649,1.626c-.508.961-1.038,1.9-2.3,1.992l-.66.639c-.247.343-.314.923-.966.736a.99.99,0,0,0-.673.591,9.081,9.081,0,0,1-4.286,3.6l-1.946,1.4a3.308,3.308,0,0,1-2.329,1.891l-.335.291a12.45,12.45,0,0,1-4.613,3.284,76.977,76.977,0,0,0-6.557,4.318c-.711,1.278-2.1,1.652-3.235,2.324-1.272.754-2.365,1.91-3.97,2.022l-3.617,1.976a2.783,2.783,0,0,1-2.3,1.3l-7.606,3.812a2.335,2.335,0,0,1-2.286,1.045l-12.784,5.357c-.39.624-.865,1.032-1.652.651l-1.963.669c-.394.618-.869,1.028-1.653.646l-3.946,1.311a1.847,1.847,0,0,1-2.3.678l-6.248,1.972c-.515.665-1.113,1.062-1.972.608l-2.959.706a1.849,1.849,0,0,1-2.3.649l-3.288.929a1.2,1.2,0,0,1-1.3.4l-1-.01a2.161,2.161,0,0,1-2.63.625,6.59,6.59,0,0,0-2.341.537,1.442,1.442,0,0,1-1.932.463,2.314,2.314,0,0,0-1.679.213,1.785,1.785,0,0,1-2.267.409c-3.408.508-6.83.929-10.193,1.708a2.975,2.975,0,0,1-2.628.329l-1.315-.033a1.278,1.278,0,0,1-.677.3c-.561-.038-1.12-.357-1.685-.017l-.135-.024-.133.031a2.058,2.058,0,0,1-1.566.462c-.71.019-1.378-.569-2.116-.142l-2.912.076a4.9,4.9,0,0,1-2.922-.15q-6.365-8.436-12.736-16.867a61.743,61.743,0,0,0-4.975-6.4c.041-1.169.153-1.242,1.943-1.276a.574.574,0,0,0,.31-.063,4.869,4.869,0,0,1,3.31-1.25c5-1.9,9.967-3.867,14.769-6.233a3.3,3.3,0,0,1,2.3-.978L638.431,450a5.3,5.3,0,0,1,2.867-1.618l5.353-2.955a11.453,11.453,0,0,1,4.214-2.621l1.7-1.022a5.284,5.284,0,0,1,2.551-1.614l5.339-3.614a70.521,70.521,0,0,1,8.636-6.192c.5-.391.872-.968,1.554-1.107a13.146,13.146,0,0,1,4.236-3.53l3.326-2.695a4.932,4.932,0,0,1,2.551-2.236l.408-.386a5.623,5.623,0,0,1,2.554-2.246l1.391-1.345c.726-1.047,1.4-2.154,2.734-2.541q3.426-3.432,6.851-6.865a2.3,2.3,0,0,1,.836-1.361,49.229,49.229,0,0,0,3.594-3.86,19.561,19.561,0,0,1-5.147,3.477l-.351.255a6.292,6.292,0,0,1-3.306,2.294,36.448,36.448,0,0,0-4.572,3,3.985,3.985,0,0,1-2.615,1.689l-1,.614a4.008,4.008,0,0,1-2.615,1.688,8.014,8.014,0,0,0-2.3,1.341,4.291,4.291,0,0,1-2.668,1.6,40.7,40.7,0,0,0-4.234,2.38,4.582,4.582,0,0,1-2.725,1.536,3.777,3.777,0,0,0-1.549.762,4.26,4.26,0,0,1-2.681,1.5l-3.578,1.785a9.324,9.324,0,0,1-3.94,1.9l-5.62,2.55a2.751,2.751,0,0,1-2.289,1.031l-2.982,1.274c-.625.919-1.63.937-2.58,1.086-.758-.04-1.271.6-1.974.714a6.017,6.017,0,0,1-3.956,1.58,1.374,1.374,0,0,0-.981.357,4.717,4.717,0,0,1-3.321,1.268L622,441.227a13.982,13.982,0,0,1-6.576,1.935c-3.5.907-6.959,2-10.52,2.673a3.743,3.743,0,0,1-3.616.959l-6.939,1.521A4.357,4.357,0,0,1,590.435,449.07Z" transform="translate(-284.903 -136.673)"/>
    <path class="cls-1" d="M437.893,140.757a2.117,2.117,0,0,1-1.719,1.278c-2.417.6-4.837,1.194-7.241,1.843a1.6,1.6,0,0,1-1.873-.534A69.835,69.835,0,0,1,437.893,140.757Z" transform="translate(-284.903 -136.673)"/>
    <path class="cls-1" d="M397.825,175c-.425-.846.03-1.255.728-1.645.952-.531,2.062-.756,2.83-1.668.468-.556,1.063-.433,1.362.33.062.794-.665.638-1.061.882a7.593,7.593,0,0,0-2.27,1.289C399.067,174.821,398.632,175.276,397.825,175Z" transform="translate(-284.903 -136.673)"/>
    <path class="cls-1" d="M457.955,149.617c.564-.385.681-1.117,1.4-1.469,1.051-.517,1.825-.525,2.529.44A17.227,17.227,0,0,1,457.955,149.617Z" transform="translate(-284.903 -136.673)"/>
    <path class="cls-1" d="M431.953,158.042l-2.934,1.037a2.281,2.281,0,0,1,2.72-1.913,8.9,8.9,0,0,1,1.245.313Z" transform="translate(-284.903 -136.673)"/>
    <path class="cls-1" d="M405.678,150.63c-.215,1.6-1.291,1.976-2.932,1.021A10.4,10.4,0,0,1,405.678,150.63Z" transform="translate(-284.903 -136.673)"/>
    <path class="cls-1" d="M418.5,146.021c-.432,1.743-1.12,1.927-2.605.7A6.8,6.8,0,0,1,418.5,146.021Z" transform="translate(-284.903 -136.673)"/>
    <path class="cls-1" d="M447.409,138.793c-.887,1.254-1.9,1.854-3.248.6A9.946,9.946,0,0,1,447.409,138.793Z" transform="translate(-284.903 -136.673)"/>
    <path class="cls-1" d="M408.966,149.326c-.029,1.2-.322,1.951-1.7,1.1a2.7,2.7,0,0,0-.914-.18A6.464,6.464,0,0,1,408.966,149.326Z" transform="translate(-284.903 -136.673)"/>
    <path class="cls-1" d="M451.706,151.238l-.661.353-1.315.231a1.15,1.15,0,0,1,1.018-1.372A.768.768,0,0,1,451.706,151.238Z" transform="translate(-284.903 -136.673)"/>
    <path class="cls-1" d="M413.568,147.681c-.239,1.755-.554,1.85-2.267.681A8.108,8.108,0,0,1,413.568,147.681Z" transform="translate(-284.903 -136.673)"/>
    <path class="cls-1" d="M438.262,155.514l-1.054.631-1.306.284C436.148,154.773,436.274,154.724,438.262,155.514Z" transform="translate(-284.903 -136.673)"/>
    <path class="cls-1" d="M406.893,169.608a1.6,1.6,0,0,1,.044.247l-.93.479-1,.251c-.312-.614-.032-.991.472-1.342C406.128,168.8,406.463,169.342,406.893,169.608Z" transform="translate(-284.903 -136.673)"/>
    <path class="cls-1" d="M397.788,153.912c-.2,1.492-.616,1.639-1.948.689A2.984,2.984,0,0,1,397.788,153.912Z" transform="translate(-284.903 -136.673)"/>
    <path class="cls-1" d="M447.758,152.57l-.321-.063c.736-1.6,1-1.681,1.967-.615Z" transform="translate(-284.903 -136.673)"/>
    <path class="cls-1" d="M422.759,144.707c-.743,1.585-1.026,1.666-1.969.565A3.479,3.479,0,0,1,422.759,144.707Z" transform="translate(-284.903 -136.673)"/>
    <path class="cls-1" d="M421.174,162.427c-.029.1-.059.191-.089.287a3.423,3.423,0,0,0-1.6.7l-.33-.042C419.1,161.49,420.164,162.019,421.174,162.427Z" transform="translate(-284.903 -136.673)"/>
    <path class="cls-1" d="M423.1,161.769l-.329-.042c-.082-1.845.969-1.363,1.98-.964Z" transform="translate(-284.903 -136.673)"/>
    <path class="cls-1" d="M408.966,168.705l-.33-.094c-.016-1.441.57-1.686,1.7-.856l-.473.523Z" transform="translate(-284.903 -136.673)"/>
    <path class="cls-1" d="M394.158,155.556c-.361.342-.541,1.3-1.275.375A1.7,1.7,0,0,1,394.158,155.556Z" transform="translate(-284.903 -136.673)"/>
    <path class="cls-1" d="M426.377,143.628c-.191,1.033-.567.608-.951.122Z" transform="translate(-284.903 -136.673)"/>
    <ellipse class="cls-2" cx="302.097" cy="205.327" rx="39" ry="49"/>
    <ellipse class="cls-2" cx="177.097" cy="205.327" rx="39" ry="49"/>
  </g>
</svg>
