<svg id="Layer_1" data-name="Layer 1" xmlns="http://www.w3.org/2000/svg" viewBox="0 0 254.399 266.475">
  <defs>
    <style>
      .cls-1 {
        fill: #6441a5;
      }
    </style>
  </defs>
  <title>tv-on</title>
  <g>
    <path class="cls-1" d="M820.67,420.589v5.4q0,75.5.06,150.994a10.049,10.049,0,0,1-3.185,7.873q-31.416,31.158-62.573,62.578a10.448,10.448,0,0,1-8.328,3.312c-13.831-.174-27.669-.241-41.494.077a12.607,12.607,0,0,0-7.713,3.249c-10.113,9.675-19.8,19.8-29.9,29.487a12.054,12.054,0,0,1-7.3,2.977c-9.106.349-18.234.138-27.866.138V650.851H566.588c-.1-2.253-.248-4.015-.248-5.776q-.018-87.747.043-175.493a20.51,20.51,0,0,1,1.256-7.266c4.944-12.7,10.182-25.3,15.107-38.01,1.124-2.9,2.519-4.052,5.757-4.048q114,.141,227.992.082C817.64,420.34,818.785,420.473,820.67,420.589Zm-23.34,23.4H605.052V612.436h53.856v36.15c2.3-2.194,3.628-3.4,4.9-4.672,9.2-9.183,18.486-18.281,27.516-27.627a11.872,11.872,0,0,1,9.53-4.055q26.491.344,52.988-.048a12.483,12.483,0,0,0,7.717-3.232c10.931-10.506,21.468-21.42,32.334-32a11.051,11.051,0,0,0,3.508-8.787q-.162-59.239-.068-118.481Z" transform="translate(-566.331 -420.258)"/>
    <path class="cls-1" d="M671.655,489.545h19.6v67.822h-19.6Z" transform="translate(-566.331 -420.258)"/>
    <path class="cls-1" d="M734.664,489.552h19.585v67.807H734.664Z" transform="translate(-566.331 -420.258)"/>
  </g>
</svg>
