<svg id="Layer_1" data-name="Layer 1" xmlns="http://www.w3.org/2000/svg" viewBox="0 0 516.08 361.31"><defs><style>.cls-1{fill:#666;}</style></defs><title>yt-off</title><path class="cls-1" d="M1009,735.4c-18.28-.25-36.57-.38-54.85-.78-17.29-.37-34.59-1-51.88-1.58-11-.39-22-.81-33-1.47-10.4-.62-20.79-1.4-31.16-2.42-8-.79-16-1.8-23.94-3.24a65.19,65.19,0,0,1-35.57-18.36,63.49,63.49,0,0,1-16.38-28.25,143.74,143.74,0,0,1-3.74-17.88c-1.26-8.75-2.57-17.51-3.37-26.31-1.24-13.7-2.25-27.42-2.77-41.18-.42-10.81-.89-21.61-1-32.42-.15-13.57.07-27.13.82-40.68.51-9.23.87-18.46,1.43-27.68.41-6.67.91-13.34,1.63-20,.87-8,2-16,3.07-24a148.86,148.86,0,0,1,3.88-19.05A64.42,64.42,0,0,1,811.1,384c5.2-1.08,10.44-1.86,15.7-2.57,10.34-1.39,20.73-2.16,31.11-3,8.81-.71,17.66-1.05,26.49-1.52,4.32-.23,8.64-.4,13-.59,29.86-1.31,59.74-1.82,89.62-2.09,14.75-.14,29.49-.25,44.24,0,16.9.3,33.81.34,50.72.75,15.13.36,30.25,1,45.38,1.63q15.32.64,30.62,1.61c6.67.42,13.32,1.07,20,1.71q7.92.76,15.82,1.73a138.91,138.91,0,0,1,17.37,3.21,64.27,64.27,0,0,1,45.07,44.23,177.67,177.67,0,0,1,4.37,20.76q2.64,16.9,3.81,34c.61,8.63,1.34,17.24,1.84,25.87.35,6.09.39,12.19.58,18.28,0,.59,0,1.18,0,1.77,1.24,22.22.2,44.42-.51,66.62-.27,8.83-1.1,17.65-1.76,26.47-.36,4.9-.94,9.78-1.31,14.68a272.67,272.67,0,0,1-3.87,28.61A147,147,0,0,1,1256,680.5a64.16,64.16,0,0,1-46.44,44.28,186.22,186.22,0,0,1-19.17,3.26c-13.26,1.66-26.6,2.58-39.94,3.47-10.78.71-21.59,1-32.4,1.48-10.21.41-20.43.82-30.65,1.08-22.6.57-45.2,1.12-67.81,1.17H1009Zm81.58-181.12a21.78,21.78,0,0,0-4.94-3.26l-121.47-70.2c-1.36-.78-2.74-1.54-4.13-2.26s-2.48-.07-2.52,1.26q-.1,3.24-.11,6.48,0,53.66,0,107.31,0,15.33,0,30.66c0,1.77,0,3.53.1,5.3a1.38,1.38,0,0,0,2,1.36c1.41-.71,2.81-1.42,4.16-2.2l121.49-70.16c1.53-.89,3.06-1.78,4.52-2.77C1090.06,555.52,1090.24,554.87,1090.58,554.28Z" transform="translate(-751.3 -374.09)"/></svg>