<svg id="Layer_1" data-name="Layer 1" xmlns="http://www.w3.org/2000/svg" viewBox="0 0 516.084 361.306">
  <defs>
    <style>
      .cls-1 {
        fill: #ed1c24;
      }

      .cls-2 {
        fill: #fff;
      }
    </style>
  </defs>
  <title>yt-on</title>
  <g>
    <path class="cls-1" d="M1009,735.4c-18.282-.247-36.568-.378-54.847-.776-17.3-.377-34.587-.984-51.877-1.587-11-.384-22-.807-32.992-1.463-10.4-.621-20.792-1.4-31.157-2.426-8.011-.791-16.007-1.8-23.944-3.236a65.207,65.207,0,0,1-35.567-18.361,63.438,63.438,0,0,1-16.38-28.254,143.932,143.932,0,0,1-3.747-17.875c-1.258-8.752-2.567-17.511-3.363-26.311-1.24-13.7-2.253-27.423-2.779-41.18-.413-10.806-.885-21.609-1-32.422-.144-13.567.071-27.129.821-40.681.511-9.224.87-18.458,1.437-27.679.41-6.669.9-13.339,1.625-19.979.871-8.008,1.979-15.99,3.067-23.972a151.4,151.4,0,0,1,3.883-19.051,64.417,64.417,0,0,1,48.927-46.141c5.193-1.089,10.437-1.861,15.7-2.571,10.332-1.394,20.721-2.163,31.1-2.994,8.815-.707,17.66-1.048,26.494-1.52,4.319-.232,8.641-.4,12.962-.589,29.859-1.311,59.736-1.82,89.621-2.093,14.746-.134,29.488-.25,44.234.012,16.906.3,33.817.341,50.72.746,15.132.362,30.258,1.007,45.382,1.637q15.318.639,30.624,1.6c6.667.42,13.321,1.078,19.973,1.714q7.921.759,15.82,1.732a138.166,138.166,0,0,1,17.373,3.2,64.246,64.246,0,0,1,45.071,44.237,175.887,175.887,0,0,1,4.367,20.757c1.764,11.266,3.013,22.594,3.816,33.97.608,8.625,1.338,17.242,1.834,25.872.35,6.083.4,12.182.58,18.275.017.589,0,1.18.032,1.769,1.246,22.217.2,44.422-.5,66.623-.279,8.832-1.108,17.648-1.761,26.466-.363,4.9-.948,9.78-1.311,14.678a274.508,274.508,0,0,1-3.871,28.616c-.875,4.826-1.986,9.631-3.335,14.347a64.12,64.12,0,0,1-46.44,44.278,185.92,185.92,0,0,1-19.162,3.268c-13.266,1.658-26.606,2.581-39.94,3.461-10.786.713-21.6,1.053-32.4,1.488-10.215.411-20.432.812-30.651,1.072-22.6.575-45.2,1.129-67.817,1.174-3.539.007-7.078,0-10.617,0Zm81.581-181.115a21.591,21.591,0,0,0-4.944-3.268q-60.729-35.1-121.466-70.192-2.04-1.179-4.133-2.267c-1.272-.663-2.476-.064-2.518,1.258q-.105,3.24-.109,6.482-.009,53.656,0,107.312,0,15.33,0,30.66c0,1.768.04,3.536.1,5.3a1.38,1.38,0,0,0,1.967,1.356c1.4-.7,2.8-1.417,4.159-2.2q60.747-35.071,121.483-70.162c1.531-.884,3.065-1.77,4.527-2.761C1090.064,555.519,1090.236,554.865,1090.579,554.284Z" transform="translate(-751.303 -374.093)"/>
    <polygon class="cls-2" points="205.697 103.907 205.697 256.907 339.697 180.907 205.697 103.907"/>
  </g>
</svg>
